<?xml version="1.0" standalone="no"?>
<!DOCTYPE svg PUBLIC "-//W3C//DTD SVG 20010904//EN"
 "http://www.w3.org/TR/2001/REC-SVG-20010904/DTD/svg10.dtd">
<svg version="1.0" xmlns="http://www.w3.org/2000/svg"
 width="700.000000pt" height="700.000000pt" viewBox="0 0 700.000000 700.000000"
 preserveAspectRatio="xMidYMid meet">
<metadata>
Created by potrace 1.14, written by Peter Selinger 2001-2017
</metadata>
<g transform="translate(0.000000,700.000000) scale(0.100000,-0.100000)"
fill="#000000" stroke="none">
<path d="M4980 5472 c-28 -22 -38 -104 -18 -142 17 -32 71 -39 99 -14 28 25
27 126 -1 154 -25 25 -51 25 -80 2z"/>
<path d="M4622 5324 c-36 -25 -30 -72 16 -117 47 -46 93 -51 118 -12 22 34 12
65 -36 109 -44 40 -64 44 -98 20z"/>
<path d="M5312 5297 c-45 -46 -54 -83 -26 -111 28 -29 73 -20 115 23 44 44 50
80 19 111 -31 31 -61 25 -108 -23z"/>
<path d="M2290 5272 c-18 -14 -24 -32 -28 -75 -4 -57 -5 -57 -37 -57 -74 0
-115 -30 -115 -85 0 -55 41 -85 116 -85 33 0 34 -1 34 -40 0 -97 76 -145 135
-85 20 19 25 34 25 73 l0 50 57 4 c46 4 61 10 80 32 13 15 23 38 23 51 0 13
-10 36 -23 51 -19 22 -34 28 -80 32 l-57 4 0 54 c0 45 -4 56 -26 73 -33 26
-75 27 -104 3z"/>
<path d="M3455 5215 c-24 -23 -25 -28 -25 -173 l0 -149 -72 -6 c-256 -20 -555
-138 -780 -308 -297 -223 -503 -552 -578 -919 -26 -125 -25 -126 9 -161 34
-34 68 -37 103 -9 21 16 28 36 42 110 47 257 173 509 343 689 l68 72 85 -66
c206 -160 280 -247 280 -330 0 -33 -13 -60 -80 -160 -162 -242 -230 -412 -230
-575 0 -112 23 -188 103 -342 l60 -117 5 -108 c6 -148 -30 -278 -102 -367
l-23 -30 -105 102 c-212 206 -341 440 -398 724 -23 111 -31 133 -56 142 -49
19 -107 -5 -118 -49 -8 -33 27 -207 66 -320 76 -222 197 -414 373 -591 263
-264 548 -397 958 -449 l47 -6 0 -125 c0 -119 1 -126 25 -149 29 -30 74 -32
106 -6 23 18 24 27 27 150 l4 130 46 6 c214 27 371 71 539 150 431 204 749
616 843 1091 120 602 -138 1223 -648 1565 -212 142 -477 238 -709 256 l-72 6
-3 154 c-3 149 -4 156 -27 174 -32 26 -77 24 -106 -6z m355 -511 c63 -13 256
-78 269 -90 2 -2 12 -58 22 -126 33 -222 22 -456 -26 -549 -9 -16 -48 -64 -86
-107 -152 -165 -217 -287 -226 -421 -5 -64 -1 -88 20 -152 30 -88 88 -191 119
-214 32 -21 63 -19 94 8 37 32 36 72 -4 134 -60 93 -75 140 -70 213 7 93 57
184 165 302 104 112 125 145 160 245 23 67 27 99 31 228 2 83 -1 190 -7 239
-6 49 -9 91 -7 93 9 10 172 -125 249 -206 177 -187 292 -408 349 -674 31 -146
30 -389 -1 -537 -39 -181 -110 -350 -219 -514 -46 -70 -281 -316 -301 -316 -7
0 -11 30 -11 79 0 96 -21 222 -56 333 -39 123 -61 164 -95 178 -64 27 -126
-37 -100 -104 69 -172 91 -285 91 -462 l0 -134 -67 -34 c-128 -64 -299 -112
-460 -131 l-53 -6 0 1379 0 1378 73 -8 c39 -4 106 -15 147 -24z m-380 -1349
l0 -1375 -42 5 c-233 32 -398 82 -545 167 l-41 24 43 68 c84 130 125 312 105
470 -13 105 -22 131 -100 282 -56 110 -62 127 -67 200 -10 140 48 292 191 503
94 140 104 158 116 219 11 60 -2 131 -38 202 -33 66 -156 193 -267 274 -44 33
-84 62 -88 66 -11 10 137 104 230 147 145 67 342 119 461 122 l42 1 0 -1375z"/>
<path d="M4903 5209 c-150 -58 -232 -255 -166 -400 108 -241 436 -246 558 -9
27 52 32 165 10 231 -24 72 -110 159 -179 182 -66 23 -158 21 -223 -4z m189
-156 c84 -42 96 -167 24 -231 -64 -56 -143 -54 -201 3 -59 59 -57 150 4 209
47 45 109 52 173 19z"/>
<path d="M4472 4964 c-28 -19 -29 -67 -2 -94 15 -15 33 -20 69 -20 85 0 130
61 81 110 -25 25 -114 28 -148 4z"/>
<path d="M5417 4962 c-10 -10 -17 -33 -17 -50 0 -41 31 -62 91 -62 83 0 127
62 79 110 -28 28 -129 29 -153 2z"/>
<path d="M1760 4882 c-18 -14 -24 -32 -28 -74 l-4 -56 -56 -4 c-64 -6 -92 -30
-92 -82 0 -50 34 -76 98 -76 l52 0 0 -51 c0 -43 5 -55 29 -80 34 -34 69 -37
102 -10 18 15 25 32 29 77 l5 59 59 5 c45 4 62 11 77 29 27 33 24 68 -10 102
-25 24 -37 29 -80 29 l-51 0 0 53 c0 43 -5 58 -23 75 -29 27 -77 29 -107 4z"/>
<path d="M4645 4629 c-36 -33 -45 -48 -45 -74 0 -39 20 -58 62 -58 23 0 40 10
69 41 46 49 50 82 13 111 -37 29 -48 27 -99 -20z"/>
<path d="M5290 4650 c-32 -32 -26 -71 18 -112 49 -48 72 -54 105 -27 40 31 35
63 -17 115 -48 48 -75 55 -106 24z"/>
<path d="M4980 4522 c-28 -22 -38 -104 -18 -142 17 -32 71 -39 99 -14 28 25
27 126 -1 154 -25 25 -51 25 -80 2z"/>
<path d="M1613 2835 c-149 -46 -268 -186 -293 -345 -36 -231 124 -450 359
-491 126 -23 277 26 371 120 56 56 73 90 64 127 -10 40 -41 54 -119 54 -96 0
-155 22 -214 79 -86 84 -105 204 -51 319 36 77 37 96 5 127 -27 28 -58 31
-122 10z m-42 -419 c34 -93 122 -189 212 -232 45 -21 33 -34 -34 -34 -74 0
-138 28 -196 85 -93 94 -108 223 -40 335 l22 35 7 -67 c4 -37 17 -92 29 -122z"/>
<path d="M5156 2834 c-54 -20 -102 -58 -143 -115 -19 -27 -40 -49 -45 -49 -23
0 -79 -53 -99 -92 -17 -33 -20 -55 -17 -103 4 -71 30 -117 86 -156 35 -24 39
-24 310 -27 264 -3 275 -2 319 19 54 26 97 82 113 149 25 103 -43 223 -142
251 -26 7 -61 29 -89 56 -78 75 -197 102 -293 67z m178 -178 c17 -19 40 -46
51 -61 16 -21 30 -27 62 -29 77 -4 109 -64 57 -105 -25 -20 -39 -21 -249 -21
-206 0 -223 1 -239 19 -24 26 -12 59 22 66 53 11 77 30 90 70 7 22 26 52 42
68 25 22 40 27 81 27 45 0 55 -4 83 -34z"/>
<path d="M4720 2224 c-85 -31 -163 -98 -197 -169 -10 -20 -29 -36 -58 -49 -49
-20 -100 -72 -121 -122 -19 -44 -18 -136 2 -182 20 -49 70 -100 119 -123 36
-17 70 -19 373 -19 268 0 339 3 367 14 119 50 186 181 156 302 -25 97 -101
171 -199 193 -27 6 -50 18 -60 33 -30 43 -77 81 -132 106 -70 33 -184 40 -250
16z m189 -158 c30 -16 91 -80 91 -96 0 -27 41 -50 91 -50 45 0 55 -4 85 -34
45 -45 47 -92 5 -138 l-29 -33 -302 -3 c-324 -3 -333 -2 -360 49 -25 45 17
109 71 109 35 0 89 47 89 77 0 30 48 91 88 112 45 24 131 27 171 7z"/>
<path d="M2230 1960 c-15 -15 -20 -33 -20 -75 l0 -55 -45 0 c-55 0 -90 -15
-104 -47 -29 -64 2 -105 85 -113 l59 -5 5 -57 c6 -64 20 -85 67 -94 27 -5 37
-1 63 24 25 26 30 38 30 81 l0 51 49 0 c64 0 101 28 101 76 0 53 -36 84 -98
84 l-50 0 -4 57 c-4 43 -10 61 -28 75 -30 24 -85 23 -110 -2z"/>
</g>
</svg>
